# xmcd
#
# Track frame offsets:
#	150
#	16781
#	32268
#	54229
#	70778
#	91273
#	116184
#	132993
#	154798
#	168439
#	194721
#
# Disc length: 2844 seconds
# Revision: 0
# Processed by: cddbd v1.5.2PL0 Copyright (c) Steve Scherf et al.
# Submitted via: dBpowerAMP V12.0
#
DISCID=890b1a0b
DTITLE=Slaid Cleaves - Sorrow and Smoke, Disc 1
DYEAR=2011
DGENRE=Country
TTITLE0=Hard to Believe
TTITLE1=Horseshoe Lounge
TTITLE2=Drinkin' Days
TTITLE3=Black T-Shirt
TTITLE4=No Angel Knows
TTITLE5=Below
TTITLE6=Tumbleweed Stew
TTITLE7=Sinner's Prayer
TTITLE8=Broke Down
TTITLE9=Wishbones
TTITLE10=New Year's Day
EXTD=
EXTT0=
EXTT1=
EXTT2=
EXTT3=
EXTT4=
EXTT5=
EXTT6=
EXTT7=
EXTT8=
EXTT9=
EXTT10=
PLAYORDER=
